<?xml version="1.0" encoding="UTF-8" standalone="no"?>
<!-- Created with Inkscape (http://www.inkscape.org/) -->

<svg width="258" height="258" viewBox="0 0 68.262498 68.262501" version="1.1" id="svg10588" inkscape:version="1.4.2 (ebf0e940d0, 2025-05-08)" sodipodi:docname="map-tree-14.svg" xmlns:inkscape="http://www.inkscape.org/namespaces/inkscape" xmlns:sodipodi="http://sodipodi.sourceforge.net/DTD/sodipodi-0.dtd" xmlns="http://www.w3.org/2000/svg" xmlns:svg="http://www.w3.org/2000/svg" xmlns:rdf="http://www.w3.org/1999/02/22-rdf-syntax-ns#" xmlns:cc="http://creativecommons.org/ns#" xmlns:dc="http://purl.org/dc/elements/1.1/">
  <defs id="defs10582" />
  <sodipodi:namedview id="base" pagecolor="#ffffff" bordercolor="#666666" borderopacity="1.0" inkscape:pageopacity="0.0" inkscape:pageshadow="2" inkscape:zoom="3.7487852" inkscape:cx="125.10719" inkscape:cy="139.91199" inkscape:document-units="mm" inkscape:current-layer="svg10588" showgrid="true" units="px" inkscape:window-width="1104" inkscape:window-height="602" inkscape:window-x="52" inkscape:window-y="34" inkscape:window-maximized="0" inkscape:showpageshadow="2" inkscape:pagecheckerboard="0" inkscape:deskcolor="#d1d1d1" showguides="false">
    <inkscape:grid type="xygrid" id="grid11143" originx="0" originy="0" spacingy="1" spacingx="1" units="px" />
  </sodipodi:namedview>
  <metadata id="metadata10585">
    <rdf:RDF>
      <cc:Work rdf:about="">
        <dc:format>image/svg+xml</dc:format>
        <dc:type rdf:resource="http://purl.org/dc/dcmitype/StillImage" />
      </cc:Work>
    </rdf:RDF>
  </metadata>
  <path id="path16" clip-path="none" style="fill:#4c6339;fill-opacity:0.94;stroke:#474747;stroke-width:0;stroke-dasharray:none" d="M 34.000021 1.0001605 C 33.724831 1.1377558 33.387234 1.3470349 33.007602 1.6167138 L 33.03017 3.488648 L 31.786031 2.5758462 C 31.119199 3.1449436 30.40281 3.8258572 29.708028 4.5796444 C 30.310172 5.0828272 31.021003 5.6672519 31.613008 5.9316959 L 29.087694 5.2803946 C 28.326689 6.1751029 27.619823 7.1473562 27.068137 8.1413088 C 27.935918 8.7876239 29.061842 9.21149 30.096894 9.4038175 L 26.607515 9.0594565 C 26.317538 9.7093657 26.105716 10.361413 25.999912 10.999996 C 25.95944 11.244268 25.931718 11.496266 25.916005 11.755095 C 27.005284 12.520658 28.474506 13.176953 30.443517 13.83329 L 25.936259 13.143677 C 26.017263 14.143975 26.231295 15.212165 26.538075 16.306631 C 27.532635 16.960416 28.760951 17.549317 29.828391 17.875634 L 26.850557 17.335704 C 27.151997 18.261334 27.509741 19.196593 27.899106 20.117322 C 29.141386 20.607859 30.335213 21.106622 31.305735 21.591882 L 28.404864 21.268014 C 28.972984 22.514674 29.582923 23.7145 30.172699 24.804731 C 30.172764 24.80485 30.172635 24.805057 30.172699 24.805176 L 31.62979 26.634789 L 31.119982 26.498916 C 32.334906 28.603499 33.28063 29.997651 33.281313 29.998658 L 33.281892 29.999994 L 34.000021 29.999994 L 34.69211 29.999994 C 34.69211 29.999994 35.56958 28.637677 36.701251 26.574649 L 34.999962 27.000088 L 34.999962 25.999971 L 37.385817 25.295657 C 38.018095 24.085326 38.687051 22.718147 39.30295 21.288951 L 36.478463 21.591882 C 37.369544 21.146342 38.557351 20.642787 39.7682 20.170335 C 40.142562 19.235441 40.485563 18.285123 40.773349 17.344614 L 37.035722 17.923747 C 38.260979 17.615724 39.799366 17.01775 41.058055 16.346724 C 41.344948 15.259828 41.545123 14.19836 41.620522 13.202926 L 37.340102 13.83329 C 39.202701 13.212424 40.459071 12.446464 41.634989 11.756432 C 41.61818 11.49711 41.589891 11.244709 41.549346 10.999996 C 41.44551 10.373294 41.249867 9.73387 40.985143 9.0959864 L 37.638117 9.4131728 C 38.6199 9.2382741 39.699369 8.8554318 40.606114 8.2727274 C 40.089139 7.2482614 39.417627 6.2443001 38.690139 5.3213794 L 36.146307 5.944615 C 36.738436 5.6951632 37.473028 5.1300651 38.125936 4.6339938 C 37.463308 3.8584601 36.776171 3.1581833 36.131261 2.5754007 L 34.754027 3.488648 L 34.940938 1.5957759 C 34.587261 1.3361103 34.268101 1.1342007 34.000021 1.0001605 z " transform="matrix(0.89302124,0,0,1.16,3.7741937,-0.35816794)" />
  <path id="path4" clip-path="none" style="fill:#4c6339;fill-opacity:0.94;stroke:#474747;stroke-width:0;stroke-dasharray:none" d="M 34.692279 29.999888 C 34.692279 29.999888 35.569326 28.637833 36.700998 26.574802 L 35.000322 26.999972 L 35.000006 25.999831 L 37.386102 25.295977 L 37.386392 25.295591 C 38.018547 24.085477 38.686726 22.718112 39.302508 21.289223 L 36.478172 21.592016 C 37.369254 21.146475 38.557135 20.642948 39.767986 20.170496 C 40.142347 19.235602 40.485543 18.285215 40.773329 17.344707 L 37.035627 17.923635 C 38.260884 17.615612 39.799333 17.017784 41.058022 16.346759 C 41.344915 15.259863 41.545296 14.198764 41.620695 13.20333 L 37.340287 13.833223 C 39.202886 13.212356 40.458817 12.446413 41.634734 11.756381 C 41.617925 11.49706 41.589864 11.244507 41.549318 10.999794 C 41.445451 10.372897 41.249683 9.7336859 40.984833 9.0956043 L 37.63774 9.4129614 C 38.619522 9.2380626 39.699421 8.8556794 40.606164 8.272976 C 40.089128 7.2483887 39.418046 6.2442015 38.690457 5.3211908 L 36.145985 5.9448775 C 36.738113 5.695426 37.473059 5.1301482 38.125966 4.6340771 C 37.46334 3.8585443 36.775929 3.1583526 36.13102 2.5755706 L 34.754247 3.4883275 L 34.941186 1.596107 C 34.587371 1.3363183 34.26809 1.1338431 33.999922 0.99975882 C 33.724837 1.1373014 33.387098 1.346804 33.007643 1.6163336 C 33.007497 1.6164375 33.0075 1.6166154 33.007354 1.6167194 L 33.03019 3.4884958 L 31.786138 2.5759828 C 31.119306 3.1450803 30.402832 3.8260164 29.708049 4.5798035 C 30.310194 5.0829856 31.02091 5.6671604 31.612914 5.9316041 L 29.08773 5.2804273 C 28.326725 6.175136 27.619461 7.1474095 27.067775 8.1413627 C 27.935407 8.7875662 29.061329 9.2112026 30.096234 9.4035764 L 26.607548 9.0597479 C 26.31757 9.7096573 26.105528 10.361398 25.999725 10.99998 C 25.959253 11.244253 25.931687 11.496107 25.915974 11.754937 C 27.005252 12.520498 28.474837 13.176951 30.443848 13.833288 L 25.936294 13.143598 C 26.017272 14.144017 26.231681 15.211708 26.538503 16.306326 C 27.533062 16.96011 28.761022 17.549294 29.82846 17.875611 L 26.850518 17.335439 C 27.151986 18.261203 27.50937 19.196346 27.898793 20.117211 C 29.141073 20.607748 30.335268 21.106652 31.305789 21.591912 L 28.404831 21.268057 C 28.973014 22.514854 29.582902 23.715058 30.172739 24.805384 C 30.172849 24.805588 30.172841 24.805789 30.172951 24.805993 L 31.629185 26.634831 L 31.119716 26.498922 C 32.335079 28.604266 33.282169 30.000193 33.282169 30.000193 L 34.000073 29.999836 L 34.692279 29.999888 z " transform="matrix(-0.44651062,-0.77337908,1.0045895,-0.58,19.377695,77.61371)" />
  <path id="path5" clip-path="none" style="fill:#4c6339;fill-opacity:0.94;stroke:#474747;stroke-width:0;stroke-dasharray:none" d="M 34.692326 29.999909 L 34.00012 29.999857 L 33.282216 30.000214 C 33.282216 30.000214 32.335126 28.604287 31.119763 26.498943 L 31.629231 26.634852 L 30.172998 24.806014 C 30.172888 24.80581 30.172896 24.805608 30.172786 24.805405 C 29.582949 23.715078 28.973061 22.514875 28.404878 21.268078 L 31.305836 21.591933 C 30.335314 21.106673 29.141119 20.607769 27.89884 20.117232 C 27.509417 19.196367 27.152033 18.261224 26.850565 17.33546 L 29.828507 17.875632 C 28.761067 17.549315 27.53311 16.960131 26.53855 16.306346 C 26.231727 15.21173 26.016818 14.143815 25.935839 13.143396 L 30.443894 13.833308 C 28.474882 13.176971 27.005299 12.520519 25.916021 11.754958 C 25.931733 11.496128 25.959299 11.244273 25.999771 11.000001 C 26.105575 10.361419 26.317617 9.7096778 26.607594 9.0597687 L 30.096281 9.4035971 C 29.061375 9.2112232 27.935455 8.7875875 27.067822 8.1413834 C 27.619508 7.1474307 28.326772 6.1751565 29.087776 5.2804481 L 31.61296 5.9316249 C 31.020956 5.6671811 30.31024 5.0830064 29.708096 4.5798243 C 30.402879 3.8260371 31.119353 3.1451012 31.786185 2.5760036 L 33.030237 3.4885166 L 33.0074 1.6167402 L 33.00769 1.6163544 C 33.387145 1.3468244 33.724883 1.1373223 33.999968 0.99977959 C 34.268137 1.1338638 34.587418 1.3363391 34.941233 1.5961277 L 34.754294 3.4883483 L 36.131066 2.5755913 C 36.775976 3.1583734 37.463386 3.858565 38.126013 4.6340979 C 37.473106 5.1301689 36.73816 5.6954468 36.146031 5.9448982 L 38.690504 5.3212115 C 39.418092 6.2442224 40.088674 7.2481865 40.60571 8.272774 C 39.698966 8.8554776 38.619569 9.2380835 37.637787 9.4129822 L 40.984591 9.0960109 C 41.249315 9.7338957 41.44553 10.373112 41.549365 10.999815 C 41.58991 11.244528 41.617972 11.49708 41.634781 11.756401 C 40.458863 12.446434 39.202933 13.212377 37.340334 13.833244 L 41.62024 13.203128 C 41.544841 14.198562 41.344961 15.259883 41.058069 16.346779 C 39.79938 17.017805 38.260931 17.615633 37.035673 17.923655 L 40.773376 17.344728 C 40.48559 18.285236 40.142394 19.235623 39.768032 20.170517 C 38.557182 20.642969 37.3693 21.146495 36.478218 21.592037 L 39.302555 21.289244 C 38.686772 22.718133 38.018594 24.085498 37.386438 25.295612 L 37.386149 25.295998 L 35.000053 25.999852 L 34.999868 26.99977 L 36.701045 26.574823 C 35.569373 28.637853 34.692326 29.999909 34.692326 29.999909 z " transform="matrix(0.44651062,-0.77337908,-1.0045895,-0.58,48.884805,77.633912)" />
  <path id="path19" clip-path="none" style="fill:#4c6339;fill-opacity:0.94;stroke:#474747;stroke-width:0;stroke-dasharray:none" d="M 33.281892 29.999993 L 33.281313 29.998657 C 33.28063 29.997651 32.334905 28.603497 31.119982 26.498915 L 31.62979 26.634789 L 30.172699 24.805176 C 30.172635 24.805056 30.172764 24.80485 30.172699 24.80473 C 29.582923 23.7145 28.972984 22.514673 28.404864 21.268013 L 31.305735 21.591881 C 30.335213 21.106621 29.141386 20.607858 27.899106 20.117321 C 27.509741 19.196592 27.151997 18.261333 26.850557 17.335704 L 29.828391 17.875633 C 28.760951 17.549316 27.532635 16.960415 26.538075 16.30663 C 26.231295 15.212164 26.017263 14.143974 25.936259 13.143676 L 30.443517 13.833289 C 28.474505 13.176952 27.005284 12.520657 25.916005 11.755094 C 25.931718 11.496265 25.95944 11.244267 25.999912 10.999995 C 26.105716 10.361413 26.317538 9.7093643 26.607515 9.0594557 L 30.096894 9.4038167 C 29.061841 9.211489 27.935918 8.7876237 27.068137 8.141308 C 27.619823 7.1473556 28.32669 6.175102 29.087694 5.2803938 L 31.613008 5.9316951 C 31.021003 5.6672509 30.310172 5.0828264 29.708028 4.5796436 C 30.40281 3.8258564 31.119199 3.1449428 31.786031 2.5758454 L 33.03017 3.4886472 L 33.007602 1.616713 C 33.387234 1.347034 33.724831 1.1377549 34.000021 1.0001597 C 34.268102 1.1342001 34.58726 1.3361089 34.940938 1.5957751 L 34.754027 3.4886472 L 36.131261 2.5753999 C 36.77617 3.1581821 37.463309 3.8584602 38.125936 4.6339929 C 37.473028 5.1300644 36.738436 5.6951625 36.146307 5.9446142 L 38.690139 5.3213786 C 39.417627 6.2442993 40.089139 7.2482607 40.606114 8.2727266 C 39.699369 8.855431 38.6199 9.2382733 37.638117 9.413172 L 40.985143 9.0959856 C 41.249866 9.7338686 41.44551 10.373294 41.549346 10.999995 C 41.589891 11.244709 41.61818 11.497108 41.634989 11.756431 C 40.459072 12.446463 39.2027 13.212423 37.340102 13.833289 L 41.620522 13.202925 C 41.545123 14.19836 41.344948 15.259827 41.058055 16.346724 C 39.799367 17.017749 38.260978 17.615723 37.035722 17.923746 L 40.773349 17.344613 C 40.485563 18.285122 40.142562 19.23544 39.7682 20.170334 C 38.557352 20.642786 37.369544 21.146341 36.478463 21.591881 L 39.30295 21.288951 C 38.687051 22.718147 38.018095 24.085325 37.385817 25.295656 L 34.999962 25.99997 L 34.999962 27.000087 L 36.701251 26.574648 C 35.569581 28.637674 34.69211 29.999993 34.69211 29.999993 L 34.000021 29.999993 L 33.281892 29.999993 z " transform="matrix(0.89302124,0,0,-1.16,3.7741937,68.620667)" />
  <path id="path20" clip-path="none" style="fill:#4c6339;fill-opacity:0.94;stroke:#474747;stroke-width:0;stroke-dasharray:none" d="M 27.999373 6.6737429 C 28.340175 6.1946036 28.707228 5.7277819 29.08773 5.2804275 L 31.612914 5.9316043 C 31.020911 5.6671608 30.310194 5.0829856 29.70805 4.5798037 C 30.402832 3.8260165 31.119306 3.1450805 31.786138 2.575983 L 33.030191 3.488496 L 33.007354 1.6167196 L 33.007644 1.6163338 C 33.387099 1.346804 33.724837 1.1373017 33.999922 0.99975903 C 34.268091 1.1338433 34.587371 1.3363183 34.941187 1.5961072 L 34.754248 3.4883277 L 36.13102 2.5755708 C 36.775929 3.1583528 37.46334 3.8585446 38.125967 4.6340773 C 37.47306 5.1301484 36.738114 5.6954261 36.145985 5.9448777 L 38.690458 5.321191 C 39.418046 6.2442017 40.089129 7.2483889 40.606165 8.2729762 C 39.69942 8.8556801 38.619523 9.238063 37.637741 9.4129616 L 40.984834 9.0956046 C 41.249683 9.7336861 41.445451 10.372897 41.549319 10.999794 C 41.589864 11.244506 41.617926 11.497061 41.634734 11.756381 C 40.458816 12.446414 39.202889 13.212356 37.340288 13.833223 L 41.620695 13.203331 C 41.545297 14.198764 41.344915 15.259864 41.058022 16.346759 C 39.799333 17.017785 38.260886 17.615612 37.035627 17.923635 L 40.77333 17.344707 C 40.485544 18.285215 40.142348 19.235602 39.767986 20.170496 C 38.557134 20.642949 37.369255 21.146474 36.478172 21.592016 L 39.302509 21.289223 C 38.686726 22.718111 38.018547 24.085477 37.386392 25.295591 C 37.386327 25.295716 37.386168 25.295853 37.386103 25.295977 L 35.000007 25.999831 L 35.000323 26.999972 L 36.700999 26.574802 C 35.569326 28.637835 34.69228 29.999888 34.69228 29.999888 L 34.000074 29.999836 L 33.282169 30.000193 C 33.282169 30.000193 32.33508 28.604267 31.119717 26.498922 L 31.629185 26.634831 L 30.172951 24.805993 C 30.172841 24.80579 30.17285 24.805588 30.17274 24.805384 C 29.582901 23.715054 28.973017 22.514859 28.404832 21.268057 L 31.30579 21.591913 C 30.335269 21.106653 29.141072 20.607748 27.898793 20.117211 C 27.509371 19.196346 27.151986 18.261204 26.850519 17.33544 L 29.828461 17.875611 C 28.761023 17.549295 27.533063 16.96011 26.538504 16.306326 C 26.231681 15.211708 26.017273 14.144017 25.936294 13.143599 L 30.443848 13.833288 C 28.474839 13.176952 27.005252 12.520498 25.915975 11.754937 C 25.931687 11.496107 25.959253 11.244253 25.999725 10.99998 C 26.105529 10.361398 26.31757 9.7096577 26.607548 9.0597482 L 30.096235 9.4035766 C 29.06133 9.2112028 27.935407 8.7875657 27.067775 8.1413629 C 27.343619 7.6443862 27.658571 7.1528823 27.999373 6.6737429 z " transform="matrix(-0.44651062,0.77337908,1.0045895,0.58,19.377695,-9.3512105)" />
  <path id="path21" clip-path="none" style="fill:#4c6339;fill-opacity:0.94;stroke:#474747;stroke-width:0;stroke-dasharray:none" d="M 27.99942 6.6737637 C 27.658618 7.1529031 27.343665 7.644407 27.067822 8.1413837 C 27.935454 8.7875864 29.061377 9.2112236 30.096281 9.4035974 L 26.607595 9.0597689 C 26.317617 9.709678 26.105575 10.361419 25.999772 11.000001 C 25.9593 11.244274 25.931734 11.496127 25.916021 11.754958 C 27.005299 12.520518 28.474886 13.176973 30.443895 13.833309 L 25.93584 13.143397 C 26.016818 14.143816 26.231727 15.211729 26.53855 16.306347 C 27.533109 16.96013 28.76107 17.549316 29.828507 17.875632 L 26.850565 17.33546 C 27.152033 18.261225 27.509417 19.196366 27.89884 20.117232 C 29.141118 20.607768 30.335316 21.106674 31.305836 21.591933 L 28.404879 21.268078 C 28.973065 22.514883 29.582946 23.715073 30.172786 24.805405 L 30.172998 24.806014 L 31.629232 26.634852 L 31.119763 26.498943 C 32.335126 28.604287 33.282216 30.000214 33.282216 30.000214 L 34.00012 29.999857 L 34.692326 29.999909 C 34.692326 29.999909 35.569373 28.637855 36.701045 26.574823 L 34.999868 26.99977 L 35.000053 25.999852 L 37.38615 25.295998 L 37.386439 25.295612 C 38.018594 24.085498 38.686773 22.718132 39.302556 21.289244 L 36.478219 21.592037 C 37.369302 21.146495 38.557181 20.64297 39.768033 20.170517 C 40.142394 19.235623 40.48559 18.285236 40.773376 17.344728 L 37.035674 17.923656 C 38.260933 17.615632 39.79938 17.017806 41.058069 16.34678 C 41.344962 15.259885 41.544842 14.198562 41.620241 13.203129 L 37.340335 13.833244 C 39.202936 13.212377 40.458862 12.446435 41.634781 11.756402 C 41.617972 11.497082 41.589911 11.244527 41.549366 10.999815 C 41.44553 10.373112 41.249316 9.733896 40.984591 9.0960111 L 37.637788 9.4129824 C 38.619571 9.2380836 39.698965 8.8554796 40.605711 8.2727743 C 40.088674 7.2481871 39.418093 6.2442222 38.690504 5.3212118 L 36.146032 5.9448985 C 36.738161 5.6954466 37.473106 5.1301696 38.126014 4.6340981 C 37.463387 3.8585654 36.775976 3.1583733 36.131067 2.5755916 L 34.754295 3.4883485 L 34.941233 1.596128 C 34.58742 1.3363408 34.268136 1.1338635 33.999969 0.99977981 C 33.724884 1.1373226 33.387146 1.3468244 33.00769 1.6163546 L 33.007401 1.6167404 L 33.030238 3.4885168 L 31.786185 2.5760038 C 31.119353 3.1451014 30.402879 3.8260372 29.708097 4.5798245 C 30.310241 5.0830064 31.020957 5.6671816 31.612961 5.9316251 L 29.087777 5.2804483 C 28.707274 5.7278028 28.340222 6.1946243 27.99942 6.6737637 z " transform="matrix(0.44651062,0.77337908,-1.0045895,0.58,48.884805,-9.3714125)" />
  <path sodipodi:type="star" style="display:inline;fill:#796343;fill-opacity:1;stroke:#1b1917;stroke-width:0.643584;stroke-miterlimit:4;stroke-dasharray:none;stroke-opacity:1" id="path13" sodipodi:sides="10" sodipodi:cx="22.346678" sodipodi:cy="274.63733" sodipodi:r1="2.9285607" sodipodi:r2="2.7180381" sodipodi:arg1="0.54205612" sodipodi:arg2="0.83360106" inkscape:flatsided="false" inkscape:rounded="0.22" inkscape:randomized="0" d="m 24.855429,276.14817 c -0.09242,0.16162 -0.541019,0.37948 -0.681648,0.50148 -0.160999,0.13967 -0.49118,0.59708 -0.685531,0.68458 -0.169761,0.0764 -0.660745,-0.011 -0.846225,0.005 -0.212348,0.0184 -0.74833,0.19435 -0.956995,0.1509 -0.182264,-0.0379 -0.528089,-0.39728 -0.687574,-0.49332 -0.182587,-0.10996 -0.719643,-0.28263 -0.862919,-0.44043 -0.125148,-0.13784 -0.193722,-0.63181 -0.266293,-0.80325 -0.08308,-0.19628 -0.416077,-0.65165 -0.439238,-0.86353 -0.02023,-0.18507 0.214641,-0.62501 0.256703,-0.80637 0.04816,-0.20762 0.04642,-0.77175 0.152218,-0.95678 0.09241,-0.16162 0.541018,-0.37948 0.681647,-0.50148 0.160999,-0.13967 0.49118,-0.59708 0.685531,-0.68458 0.169761,-0.0764 0.660745,0.011 0.846226,-0.005 0.212347,-0.0184 0.74833,-0.19435 0.956994,-0.1509 0.182264,0.0379 0.52809,0.39727 0.687575,0.49332 0.182586,0.10996 0.719643,0.28263 0.862919,0.44043 0.125148,0.13783 0.193722,0.6318 0.266293,0.80325 0.08308,0.19628 0.416077,0.65165 0.439237,0.86353 0.02023,0.18507 -0.214641,0.62501 -0.256703,0.80636 -0.04815,0.20763 -0.04642,0.77176 -0.152217,0.95679 z" inkscape:transform-center-x="0.011330118" inkscape:transform-center-y="-0.017069609" transform="matrix(2.0461713,0,0,2.0739054,-11.593881,-535.4406)" />
</svg>
