<?xml version="1.0" encoding="UTF-8" standalone="no"?>
<!-- Created with Inkscape (http://www.inkscape.org/) -->

<svg
   width="458.55618mm"
   height="458.55618mm"
   viewBox="0 0 458.55618 458.55618"
   version="1.1"
   id="svg1"
   xml:space="preserve"
   inkscape:version="1.4.3 (0d15f75, 2025-12-25)"
   sodipodi:docname="loot-weapon-p90-public.svg"
   inkscape:export-filename="loot-weapon-ruger1022.png"
   inkscape:export-xdpi="96"
   inkscape:export-ydpi="96"
   xmlns:inkscape="http://www.inkscape.org/namespaces/inkscape"
   xmlns:sodipodi="http://sodipodi.sourceforge.net/DTD/sodipodi-0.dtd"
   xmlns="http://www.w3.org/2000/svg"
   xmlns:svg="http://www.w3.org/2000/svg"><sodipodi:namedview
     id="namedview1"
     pagecolor="#ffffff"
     bordercolor="#999999"
     borderopacity="1"
     inkscape:showpageshadow="0"
     inkscape:pageopacity="0"
     inkscape:pagecheckerboard="0"
     inkscape:deskcolor="#d1d1d1"
     inkscape:document-units="px"
     inkscape:zoom="0.18529742"
     inkscape:cx="1119.8213"
     inkscape:cy="553.16474"
     inkscape:window-width="1469"
     inkscape:window-height="895"
     inkscape:window-x="1"
     inkscape:window-y="33"
     inkscape:window-maximized="0"
     inkscape:current-layer="layer1"
     showguides="true" /><defs
     id="defs1" /><g
     inkscape:label="Layer 1"
     inkscape:groupmode="layer"
     id="layer1"
     transform="translate(35.948391,-282.67827)"><text
       xml:space="preserve"
       style="font-weight:bold;font-size:52.7976px;line-height:1;font-family:'Bradley Hand';-inkscape-font-specification:'Bradley Hand, Bold';font-variant-ligatures:none;letter-spacing:0px;stroke-width:0.264583"
       x="-44.907166"
       y="505.37366"
       id="text1"><tspan
         sodipodi:role="line"
         id="tspan1"
         style="stroke-width:0.264583"
         x="-44.907166"
         y="505.37366" /></text><g
       id="g25"
       transform="rotate(-45,200.92474,496.41687)"><rect
         style="opacity:1;fill:#323232;fill-opacity:1;fill-rule:evenodd;stroke:none;stroke-width:6.61458;stroke-linecap:square;stroke-miterlimit:9.33;stroke-dasharray:none;stroke-opacity:1;paint-order:normal"
         id="rect9"
         width="257.46512"
         height="18.42651"
         x="107.04762"
         y="457.78403" /><g
         id="g23"><path
           style="fill:#323232;fill-opacity:1;stroke:none;stroke-width:0.264583px;stroke-linecap:butt;stroke-linejoin:miter;stroke-opacity:1"
           d="m 328.99998,451.44026 22.13221,3.74819 4.44376,3.11153 1.26693,0.11086 v 21.85482 h -9.54813 l -1.87409,4.81912 10.6199,3.56971 19.45491,0.0892 -6.06851,-14.90355 c 0.0492,3.4242 -0.98727,5.46912 -2.76653,7.13943 v -22.22145 h 2.94502 V 446.5319 l -31.41347,1.16014"
           id="path17"
           sodipodi:nodetypes="ccccccccccccccc" /><path
           id="path2"
           style="fill:#ffffff;fill-opacity:1;stroke:#323232;stroke-width:6.61458;stroke-linecap:butt;stroke-linejoin:miter;stroke-dasharray:none;stroke-opacity:1"
           d="m 379.1527,416.10016 -10.73113,7.4905 h -38.23746 l -44.93007,-7.31997 h -28.7755 l -18.17409,38.87204 c -3.55284,7.59914 -3.28145,19.95007 -3.28145,30.92111 0,3.96874 3.57993,7.2378 9.35292,7.2378 h 23.58202 v 11.81944 h 129.22363 v -19.94711 h 6.78253 V 459.1151 c -1.40985,-14.92031 -3.36626,-29.51272 -7.13961,-43.01494 z m -122.97492,14.18931 h 27.84378 c 0.79105,0 1.42782,0.63729 1.42782,1.42834 v 4.72943 c 0,0.79105 -0.63677,1.42833 -1.42782,1.42833 h -27.84378 c -0.79105,0 -1.42782,-0.63728 -1.42782,-1.42833 v -4.72943 c 0,-0.79105 0.63677,-1.42834 1.42782,-1.42834 z m 24.02799,12.98991 49.22128,6.88743 h 37.66747 c 1.86816,0 4.29328,2.18844 4.29328,4.0566 v 3.39876 c 1.71074,1.20766 2.50116,3.03908 2.50114,4.7501 2.1e-4,1.71121 -0.87948,3.6319 -2.50114,4.92889 v 15.66726 c 0,1.98659 -1.65027,3.59358 -3.59358,3.59358 h -12.45247 l -7.74113,-5.42034 h -79.7636 l 1.00975,-11.35899 z" /><rect
           style="opacity:1;fill:#323232;fill-opacity:1;fill-rule:evenodd;stroke:none;stroke-width:3.175;stroke-linecap:square;stroke-miterlimit:9.33;stroke-dasharray:none;stroke-opacity:1"
           id="rect10"
           width="23.146135"
           height="17.038128"
           x="376.54065"
           y="463.22003"
           ry="2.9580083"
           rx="2.9580083" /><path
           style="fill:none;stroke:#323232;stroke-width:5.29167;stroke-linecap:butt;stroke-linejoin:miter;stroke-dasharray:none;stroke-opacity:1"
           d="M 397.18157,492.6266 H 372.10113"
           id="path11" /><path
           style="opacity:1;fill:#323232;fill-opacity:1;stroke:none;stroke-width:0.264583px;stroke-linecap:butt;stroke-linejoin:miter;stroke-opacity:0"
           d="m 368.42157,423.59067 -0.24878,7.69866 c -0.21202,6.56105 4.55465,11.48497 11.10633,11.48497 8.04007,0 10.00755,-4.24483 13.37807,-10.66462 2.40978,-4.58986 6.57908,-1.52397 8.01438,0.37863 l -3.84708,-16.38815 H 379.1527 Z"
           id="path12"
           sodipodi:nodetypes="cssscccc" /><g
           id="g13"
           transform="rotate(-10,379.67069,430.75513)"><circle
             style="opacity:1;fill:#ffffff;fill-opacity:1;fill-rule:evenodd;stroke:none;stroke-width:6.61458;stroke-linecap:square;stroke-miterlimit:9.33;stroke-dasharray:none;stroke-opacity:1"
             id="path13"
             cx="379.66245"
             cy="430.57495"
             r="9.1027641" /><path
             id="path13-17"
             style="opacity:1;fill:#323232;fill-opacity:1;fill-rule:evenodd;stroke:none;stroke-width:6.61458;stroke-linecap:square;stroke-miterlimit:9.33;stroke-dasharray:none;stroke-opacity:1"
             d="m 378.52209,423.21079 a 7.4517727,7.4517727 0 0 0 -6.31176,7.36441 7.4517727,7.4517727 0 0 0 6.31176,7.36389 v -1.53996 a 5.9346452,5.9346452 0 0 1 -4.79454,-5.82393 5.9346452,5.9346452 0 0 1 4.79454,-5.82445 z m 2.28048,0 v 1.53996 a 5.9346452,5.9346452 0 0 1 4.79454,5.82445 5.9346452,5.9346452 0 0 1 -4.79454,5.82393 v 1.53996 a 7.4517727,7.4517727 0 0 0 6.31176,-7.36389 7.4517727,7.4517727 0 0 0 -6.31176,-7.36441 z" /><circle
             style="opacity:1;fill:#323232;fill-opacity:1;fill-rule:evenodd;stroke:none;stroke-width:6.61458;stroke-linecap:square;stroke-miterlimit:9.33;stroke-dasharray:none;stroke-opacity:1"
             id="path13-18"
             cx="379.66245"
             cy="430.57495"
             r="1.6286811" /></g><path
           style="fill:none;stroke:#323232;stroke-width:5.29167;stroke-linecap:butt;stroke-linejoin:miter;stroke-dasharray:none;stroke-opacity:1"
           d="m 280.20576,443.27937 -34.04494,-4.9404"
           id="path14" /><g
           id="g15"
           style="opacity:1"><rect
             style="fill:#323232;fill-opacity:1;fill-rule:evenodd;stroke:none;stroke-width:5.29167;stroke-linecap:square;stroke-miterlimit:9.33;stroke-dasharray:none;stroke-opacity:1"
             id="rect15-3"
             width="15.706725"
             height="20.525839"
             x="350.84601"
             y="422.88257"
             ry="0"
             rx="0" /><rect
             style="opacity:1;fill:#323232;fill-opacity:1;fill-rule:evenodd;stroke:none;stroke-width:5.29167;stroke-linecap:square;stroke-miterlimit:9.33;stroke-dasharray:none;stroke-opacity:1"
             id="rect15-3-4"
             width="15.706725"
             height="20.525839"
             x="290.51788"
             y="422.88257"
             ry="0"
             rx="0" /><rect
             style="fill:#323232;fill-opacity:1;fill-rule:evenodd;stroke:none;stroke-width:5.29167;stroke-linecap:square;stroke-miterlimit:9.33;stroke-dasharray:none;stroke-opacity:1"
             id="rect15-3-4-0"
             width="4.8191056"
             height="20.525839"
             x="311.29361"
             y="422.88257"
             ry="0"
             rx="0" /><rect
             style="fill:#323232;fill-opacity:1;fill-rule:evenodd;stroke:none;stroke-width:5.29167;stroke-linecap:square;stroke-miterlimit:9.33;stroke-dasharray:none;stroke-opacity:1"
             id="rect15-3-4-0-9"
             width="4.8191056"
             height="20.525839"
             x="321.1817"
             y="422.88257"
             ry="0"
             rx="0" /><rect
             style="fill:#323232;fill-opacity:1;fill-rule:evenodd;stroke:none;stroke-width:5.29167;stroke-linecap:square;stroke-miterlimit:9.33;stroke-dasharray:none;stroke-opacity:1"
             id="rect15-3-4-0-4"
             width="4.8191056"
             height="20.525839"
             x="331.06979"
             y="422.88257"
             ry="0"
             rx="0" /><rect
             style="fill:#323232;fill-opacity:1;fill-rule:evenodd;stroke:none;stroke-width:5.29167;stroke-linecap:square;stroke-miterlimit:9.33;stroke-dasharray:none;stroke-opacity:1"
             id="rect15-3-4-0-9-8"
             width="4.8191056"
             height="20.525839"
             x="340.95792"
             y="422.88257"
             ry="0"
             rx="0" /></g><circle
           style="opacity:1;fill:#ffffff;fill-opacity:1;fill-rule:evenodd;stroke:none;stroke-width:5.29167;stroke-linecap:square;stroke-miterlimit:9.33;stroke-dasharray:none;stroke-opacity:1"
           id="path15"
           cx="299.48389"
           cy="433.14548"
           r="4.1964278" /><circle
           style="fill:#ffffff;fill-opacity:1;fill-rule:evenodd;stroke:none;stroke-width:5.29167;stroke-linecap:square;stroke-miterlimit:9.33;stroke-dasharray:none;stroke-opacity:1"
           id="path15-1"
           cx="358.36008"
           cy="433.14548"
           r="4.1964278" /><circle
           style="opacity:1;fill:#323232;fill-opacity:1;fill-rule:evenodd;stroke:none;stroke-width:5.29165;stroke-linecap:square;stroke-miterlimit:9.33;stroke-dasharray:none;stroke-opacity:1"
           id="path15-3"
           cx="299.48389"
           cy="433.14548"
           r="1.9207368" /><circle
           style="fill:#323232;fill-opacity:1;fill-rule:evenodd;stroke:none;stroke-width:5.29165;stroke-linecap:square;stroke-miterlimit:9.33;stroke-dasharray:none;stroke-opacity:1"
           id="path15-3-2"
           cx="358.36008"
           cy="433.14548"
           r="1.9207368" /><path
           id="rect17"
           style="opacity:1;fill:#7e7e7e;fill-opacity:1;fill-rule:evenodd;stroke:none;stroke-width:5.29167;stroke-linecap:square;stroke-miterlimit:9.33;stroke-dasharray:none;stroke-opacity:1"
           d="m 257.4976,421.90084 -2.48977,5.3237 c 0.38411,-0.10442 0.75796,-0.24236 1.16995,-0.24236 h 27.84378 c 2.56735,0 4.73408,2.17077 4.73408,4.73666 l 0.007,-4.41885 c 0,-2.99115 -2.408,-5.39915 -5.39915,-5.39915 z"
           sodipodi:nodetypes="ccsssssc" /><circle
           style="opacity:1;fill:#323232;fill-opacity:1;fill-rule:evenodd;stroke:none;stroke-width:5.29166;stroke-linecap:square;stroke-miterlimit:9.33;stroke-dasharray:none;stroke-opacity:1"
           id="path19"
           cx="352.27054"
           cy="475.39917"
           r="4.1017718" /><path
           id="path20"
           style="fill:#323232;fill-opacity:1;stroke:none;stroke-width:0.264583px;stroke-linecap:butt;stroke-linejoin:miter;stroke-opacity:1"
           d="m 290.80409,396.28845 v 8.92402 c 0,2.77514 -2.88549,6.60423 -5.97953,6.60423 h -0.93684 v -0.49093 h -6.02392 v 0.49093 h -0.89246 v -0.49093 h -6.02392 v 0.49093 h -7.45174 v 2.67632 l 38.3744,5.71231 45.15693,3.39101 15.34997,0.1788 13.74335,-8.21035 v -19.27634 z"
           sodipodi:nodetypes="csscccccccccccccccc" /></g><g
         id="g1"><path
           id="path1"
           style="opacity:1;fill:#ffffff;fill-opacity:1;stroke:#323232;stroke-width:6.61458;stroke-linecap:butt;stroke-linejoin:miter;stroke-dasharray:none;stroke-opacity:1"
           d="m 103.51372,457.41443 -142.047135,0.44183 c -5.962268,0.0185 -5.342628,2.24969 -5.111832,3.84938 4.462633,30.93133 4.269814,87.02273 -0.157614,109.89561 -0.329637,1.70296 0.541587,3.22017 6.783565,3.15537 l 118.573119,-1.23042 1.514119,-4.54339 h 9.592179 l 57.803189,18.17357 2.52439,6.05802 37.5052,-0.39997 c 17.97971,-0.1919 29.2004,-5.65149 38.81055,-10.06657 12.36576,-5.68107 19.4812,-13.73525 25.66045,-19.63394 2.7269,-2.60309 5.17067,-5.74229 10.09654,-5.74229 h 12.1791 c 7.31785,0 9.43734,6.51044 8.51938,10.41177 l -4.79609,20.38273 c -0.61121,2.5976 0.97897,4.54339 2.71353,4.54339 h 26.31415 c 15.08148,0 25.85053,-5.93134 33.58968,-13.28704 9.908,-9.4171 14.62237,-21.9666 14.62237,-35.93372 0,-6.14642 4.72532,-10.40815 9.44386,-10.40815 h 12.62094 c 4.16905,0 7.95474,2.6521 7.98814,6.874 l 0.0889,11.2851 c 0.0118,1.48852 1.88229,3.29644 3.37086,3.29644 h 9.59166 l 3.86023,-38.54597 -7.84035,-10.8691 H 268.08972 v -11.48509 l -27.44587,-0.0889 c -2.91525,-0.009 -6.54121,-3.26886 -6.54121,-6.18412 v -6.72621 H 110.58151 V 461.9578 Z m 71.60803,55.71908 h 31.08027 c 5.54105,0 11.88383,4.89113 14.06064,11.20861 2.42446,7.03619 -0.0352,15.7086 -8.17056,19.55385 l -27.70063,13.09274 c -9.64269,4.55768 -24.88263,-1.07253 -28.87937,-12.0003 -1.9179,-5.24387 -2.68493,-10.60967 -1.70016,-14.59808 1.67736,-6.79344 5.81186,-11.33595 11.90418,-14.70607 2.33243,-1.29025 6.74012,-2.55075 9.40563,-2.55075 z m 107.02137,0.2098 h 22.5025 c 6.36403,0 11.78982,3.87489 14.05651,9.40356 a 15.649837,15.649837 0 0 1 10.9771,14.93604 15.649837,15.649837 0 0 1 -15.64969,15.64969 15.649837,15.649837 0 0 1 -14.43787,-9.61026 h -17.44855 c -8.41488,0 -15.18925,-6.77438 -15.18925,-15.18926 0,-8.41488 6.77437,-15.18977 15.18925,-15.18977 z" /><rect
           style="opacity:1;fill:#323232;fill-opacity:1;fill-rule:evenodd;stroke:none;stroke-width:13.62;stroke-linecap:square;stroke-miterlimit:9.33;stroke-dasharray:none;stroke-opacity:1;paint-order:stroke fill markers"
           id="rect2"
           width="2.6326621"
           height="115.5694"
           x="-35.512169"
           y="458.22272" /><rect
           style="fill:#323232;fill-opacity:1;fill-rule:evenodd;stroke:none;stroke-width:3.53365;stroke-linecap:square;stroke-miterlimit:9.33;stroke-dasharray:none;stroke-opacity:1;paint-order:stroke fill markers"
           id="rect2-6"
           width="6.2023735"
           height="3.301975"
           x="-33.966927"
           y="568.85748" /><rect
           style="opacity:1;fill:#323232;fill-opacity:1;fill-rule:evenodd;stroke:none;stroke-width:3.175;stroke-linecap:square;stroke-miterlimit:9.33;stroke-dasharray:none;stroke-opacity:1;paint-order:stroke fill markers"
           id="rect3"
           width="27.071692"
           height="3.0921047"
           x="-22.063456"
           y="565.44879"
           ry="1.5460523"
           rx="1.5460523" /><circle
           style="opacity:1;fill:#323232;fill-opacity:1;fill-rule:evenodd;stroke:none;stroke-width:3.175;stroke-linecap:square;stroke-miterlimit:9.33;stroke-dasharray:none;stroke-opacity:1;paint-order:stroke fill markers"
           id="path3"
           cx="-22.694496"
           cy="486.00067"
           r="3.2814171" /><rect
           style="opacity:1;fill:#323232;fill-opacity:1;fill-rule:evenodd;stroke:none;stroke-width:3.175;stroke-linecap:square;stroke-miterlimit:9.33;stroke-dasharray:none;stroke-opacity:1;paint-order:stroke fill markers"
           id="rect4"
           width="5.8686886"
           height="2.8396878"
           x="-33.92704"
           y="460.01166"
           ry="0" /><rect
           style="fill:#323232;fill-opacity:1;fill-rule:evenodd;stroke:none;stroke-width:2.59238;stroke-linecap:square;stroke-miterlimit:9.33;stroke-dasharray:none;stroke-opacity:1;paint-order:stroke fill markers"
           id="rect4-7"
           width="1.9562296"
           height="5.6793756"
           x="-30.014582"
           y="459.48422"
           ry="0" /><circle
           style="fill:#323232;fill-opacity:1;fill-rule:evenodd;stroke:none;stroke-width:3.175;stroke-linecap:square;stroke-miterlimit:9.33;stroke-dasharray:none;stroke-opacity:1;paint-order:stroke fill markers"
           id="path3-8"
           cx="36.543034"
           cy="480.46344"
           r="3.2814171" /><circle
           style="fill:#323232;fill-opacity:1;fill-rule:evenodd;stroke:none;stroke-width:3.175;stroke-linecap:square;stroke-miterlimit:9.33;stroke-dasharray:none;stroke-opacity:1;paint-order:stroke fill markers"
           id="path3-8-8"
           cx="9.4167528"
           cy="561.49121"
           r="3.2814171" /><circle
           style="fill:#323232;fill-opacity:1;fill-rule:evenodd;stroke:none;stroke-width:3.175;stroke-linecap:square;stroke-miterlimit:9.33;stroke-dasharray:none;stroke-opacity:1;paint-order:stroke fill markers"
           id="path3-8-8-4"
           cx="81.591385"
           cy="553.40234"
           r="3.2814171" /><path
           style="fill:none;stroke:#323232;stroke-width:5.29167;stroke-linecap:butt;stroke-linejoin:miter;stroke-dasharray:none;stroke-opacity:1"
           d="m 268.08954,505.1212 v 6.94148 H -40.174354"
           id="path4" /><path
           id="rect5"
           style="opacity:1;fill:#323232;fill-opacity:1;fill-rule:evenodd;stroke:none;stroke-width:9.07977;stroke-linecap:square;stroke-miterlimit:9.33;stroke-dasharray:none;stroke-opacity:1;paint-order:stroke fill markers"
           d="m 125.06951,480.63678 c -6.97746,0 -12.5951,0.90081 -12.5951,2.01952 v 8.8346 c 0,1.11871 5.61764,2.019 12.5951,2.019 6.97746,0 12.59458,-0.90029 12.59458,-2.019 v -4.86351 c 0,-2.62151 3.4855,-4.15616 5.08608,-4.58504 l -17.67497,-1.40557 z"
           sodipodi:nodetypes="ssssscccs" /><rect
           style="opacity:1;fill:#7e7e7e;fill-opacity:1;fill-rule:evenodd;stroke:none;stroke-width:4.78781;stroke-linecap:square;stroke-miterlimit:9.33;stroke-dasharray:none;stroke-opacity:1;paint-order:stroke fill markers"
           id="rect6"
           width="13.819819"
           height="13.882905"
           x="84.203972"
           y="466.62769"
           rx="0"
           ry="0" /><rect
           style="opacity:1;fill:#323232;fill-opacity:1;fill-rule:evenodd;stroke:none;stroke-width:5.54326;stroke-linecap:square;stroke-miterlimit:9.33;stroke-dasharray:none;stroke-opacity:1;paint-order:stroke fill markers"
           id="rect6-2"
           width="17.416758"
           height="14.766364"
           x="95.601837"
           y="466.18594"
           rx="8.7083788"
           ry="0.93967861" /><circle
           style="fill:#323232;fill-opacity:1;fill-rule:evenodd;stroke:none;stroke-width:1.62072;stroke-linecap:square;stroke-miterlimit:9.33;stroke-dasharray:none;stroke-opacity:1;paint-order:stroke fill markers"
           id="path3-8-8-4-0"
           cx="143.09227"
           cy="523.16003"
           r="1.675047" /><circle
           style="fill:#323232;fill-opacity:1;fill-rule:evenodd;stroke:none;stroke-width:3.175;stroke-linecap:square;stroke-miterlimit:9.33;stroke-dasharray:none;stroke-opacity:1;paint-order:stroke fill markers"
           id="path3-8-8-4-8"
           cx="162.70053"
           cy="573.27124"
           r="3.2814171" /><circle
           style="fill:#323232;fill-opacity:1;fill-rule:evenodd;stroke:none;stroke-width:3.175;stroke-linecap:square;stroke-miterlimit:9.33;stroke-dasharray:none;stroke-opacity:1;paint-order:stroke fill markers"
           id="path3-8-8-4-9"
           cx="220.18901"
           cy="567.71936"
           r="3.2814171" /><circle
           style="fill:#323232;fill-opacity:1;fill-rule:evenodd;stroke:none;stroke-width:3.175;stroke-linecap:square;stroke-miterlimit:9.33;stroke-dasharray:none;stroke-opacity:1;paint-order:stroke fill markers"
           id="path3-8-8-4-6"
           cx="240.39171"
           cy="522.60571"
           r="3.2814171" /><circle
           style="fill:#323232;fill-opacity:1;fill-rule:evenodd;stroke:none;stroke-width:3.175;stroke-linecap:square;stroke-miterlimit:9.33;stroke-dasharray:none;stroke-opacity:1;paint-order:stroke fill markers"
           id="path3-8-8-4-04"
           cx="312.8667"
           cy="572.79675"
           r="3.2814171" /><circle
           style="fill:#323232;fill-opacity:1;fill-rule:evenodd;stroke:none;stroke-width:3.175;stroke-linecap:square;stroke-miterlimit:9.33;stroke-dasharray:none;stroke-opacity:1;paint-order:stroke fill markers"
           id="path3-8-8-4-3"
           cx="352.20743"
           cy="521.69641"
           r="3.2814171" /><circle
           style="fill:#323232;fill-opacity:1;fill-rule:evenodd;stroke:none;stroke-width:3.175;stroke-linecap:square;stroke-miterlimit:9.33;stroke-dasharray:none;stroke-opacity:1;paint-order:stroke fill markers"
           id="path3-8-8-4-93"
           cx="399.38708"
           cy="521.93817"
           r="3.2814171" /><path
           style="fill:none;stroke:#323232;stroke-width:5.29167;stroke-linecap:butt;stroke-linejoin:miter;stroke-dasharray:none;stroke-opacity:1"
           d="m 96.076316,512.06268 c 0,0 -7.851877,3.8774 -7.874504,8.80983 L 88.023326,559.781 c -0.01808,3.94222 5.018736,9.10274 5.018736,9.10274"
           id="path6"
           sodipodi:nodetypes="cssc" /><rect
           style="opacity:1;fill:#323232;fill-opacity:1;fill-rule:evenodd;stroke:none;stroke-width:5.21815;stroke-linecap:square;stroke-miterlimit:9.33;stroke-dasharray:none;stroke-opacity:1;paint-order:stroke fill markers"
           id="rect7"
           width="14.766377"
           height="6.1211052"
           x="273.57962"
           y="543.42548"
           ry="0" /><path
           style="fill:#323232;fill-opacity:1;stroke:none;stroke-width:0.264583px;stroke-linecap:butt;stroke-linejoin:miter;stroke-opacity:1"
           d="m 297.74851,515.59653 c 0,0 -5.5093,3.08105 -7.38319,7.50937 -1.12352,2.65506 -1.63622,7.34248 -1.51448,10.2229 0.1371,3.24389 2.01933,9.52873 2.01933,9.52873 l -16.59642,-1.26209 -6.75214,-14.13534 4.66971,-10.91702 13.31497,-2.8397"
           id="path7"
           sodipodi:nodetypes="cssccccc" /><rect
           style="fill:#323232;fill-opacity:1;fill-rule:evenodd;stroke:none;stroke-width:5.21815;stroke-linecap:square;stroke-miterlimit:9.33;stroke-dasharray:none;stroke-opacity:1;paint-order:stroke fill markers"
           id="rect7-5"
           width="14.766377"
           height="6.1211052"
           x="282.73068"
           y="542.51782"
           ry="0" /><rect
           style="opacity:1;fill:#ffffff;fill-opacity:1;fill-rule:evenodd;stroke:#323232;stroke-width:6.61458;stroke-linecap:square;stroke-miterlimit:9.33;stroke-dasharray:none;stroke-opacity:1;paint-order:normal"
           id="rect8"
           width="80.543678"
           height="11.485089"
           x="268.08972"
           y="493.63599" /><path
           style="fill:#ffffff;fill-opacity:1;stroke:#323232;stroke-width:6.61458;stroke-linecap:butt;stroke-linejoin:miter;stroke-dasharray:none;stroke-opacity:1"
           d="m 366.90171,508.276 h -3.65105 c 0,0 -3.86803,-1.26207 -7.20989,-1.26207 h -5.85268 c -1.28079,0 -1.5547,-1.12201 -1.5547,-1.89285 v -11.4851 c 0,-0.69916 0.27391,-1.89285 1.5547,-1.89285 h 5.85268 c 3.34186,0 7.20989,-1.26207 7.20989,-1.26207 h 3.65105 c 3.4889,0 7.96877,2.96576 7.96877,8.9718 0,5.14084 -3.41476,8.82314 -7.96877,8.82314 z"
           id="path9-5"
           sodipodi:nodetypes="scsssssscsss" /><circle
           style="opacity:1;fill:#323232;fill-opacity:1;fill-rule:evenodd;stroke:none;stroke-width:6.61458;stroke-linecap:square;stroke-miterlimit:9.33;stroke-dasharray:none;stroke-opacity:1;paint-order:normal"
           id="path9"
           cx="356.52377"
           cy="499.37854"
           r="2.2725196" /><path
           style="fill:#323232;fill-opacity:1;stroke:none;stroke-width:0.264583px;stroke-linecap:butt;stroke-linejoin:miter;stroke-opacity:1"
           d="m 366.16848,495.92302 h -9.55222 c 3.90029,-0.33976 7.2341,-1.30142 7.2341,-4.63587 l 4.11665,10e-6 c 5.95142,4.44795 9.94589,9.21108 0.23059,16.18232 l -4.34724,-0.0475 c 0,-3.33446 -3.33381,-4.29611 -7.2341,-4.63587 h 9.55222 c 4.09469,0 4.27877,-6.86313 0,-6.86313 z"
           id="path10"
           sodipodi:nodetypes="sccccccss" /></g><g
         id="g24"
         transform="translate(1.6956129)"><path
           id="path21"
           style="fill:#323232;fill-opacity:1;stroke:none;stroke-width:0.264583px;stroke-linecap:butt;stroke-linejoin:miter;stroke-opacity:1"
           d="m 425.40827,480.32104 v 2.08256 h -4.4018 l 0.0631,18.8681 h 6.16861 c 2.70601,-2.04121 5.18226,-2.16499 7.38353,0 h 12.70339 l -3.97547,-20.95066 h -8.41269 c -2.8993,2.87218 -5.27795,1.97187 -7.5091,0 z m 9.79062,1.22342 h 3.97133 c 0.54867,0.91451 0.68451,1.68879 0.57981,2.7815 h -4.55114 c -1.28712,1.50209 -4.59763,2.25136 -7.00578,0 h -4.14646 c -0.19177,-0.38312 -0.25301,-0.70903 -0.24701,-1.16719 h 2.39101 v -1.39365 h 1.51205 c 2.15997,1.64951 5.19678,1.84678 7.49619,-0.22066 z m -3.79564,9.75782 c 1.19898,-0.0121 2.3977,0.0808 3.59668,0.31471 h 5.04827 v 4.73253 h -5.04827 c -2.32372,-0.59387 -4.70234,-0.74858 -7.19387,0 h -3.84938 v -4.73253 h 3.84938 c 1.19898,-0.18558 2.39822,-0.30262 3.59719,-0.31471 z"
           sodipodi:nodetypes="ccccccccccccccccccccccsccccccccs" /><rect
           style="opacity:1;fill:#323232;fill-opacity:1;fill-rule:evenodd;stroke:none;stroke-width:0.529167;stroke-linecap:square;stroke-miterlimit:9.33;stroke-dasharray:none;stroke-opacity:1"
           id="rect22"
           width="9.4656277"
           height="14.640169"
           x="412.40881"
           y="483.41339" /><rect
           style="fill:#323232;fill-opacity:1;fill-rule:evenodd;stroke:none;stroke-width:0.529167;stroke-linecap:square;stroke-miterlimit:9.33;stroke-dasharray:none;stroke-opacity:1"
           id="rect22-7"
           width="3.7231472"
           height="21.139898"
           x="414.15027"
           y="480.16351" /><rect
           style="fill:#323232;fill-opacity:1;fill-rule:evenodd;stroke:none;stroke-width:0.529167;stroke-linecap:square;stroke-miterlimit:9.33;stroke-dasharray:none;stroke-opacity:1"
           id="rect22-7-3"
           width="3.7231472"
           height="18.174002"
           x="411.01935"
           y="481.64648" /><path
           id="rect23"
           style="opacity:1;fill:#323232;fill-rule:evenodd;stroke-width:0.529167;stroke-linecap:square;stroke-miterlimit:9.33"
           d="m 401.55487,491.1121 h 6.94148 l 0.10212,-10.85392 h 3.30549 v 21.01369 h -10.34909 z"
           sodipodi:nodetypes="ccccccc" /></g></g></g></svg>
